<?xml version="1.0" encoding="UTF-8" standalone="no"?>
<svg
   xmlns:dc="http://purl.org/dc/elements/1.1/"
   xmlns:cc="http://creativecommons.org/ns#"
   xmlns:rdf="http://www.w3.org/1999/02/22-rdf-syntax-ns#"
   xmlns:svg="http://www.w3.org/2000/svg"
   xmlns="http://www.w3.org/2000/svg"
   xmlns:sodipodi="http://sodipodi.sourceforge.net/DTD/sodipodi-0.dtd"
   xmlns:inkscape="http://www.inkscape.org/namespaces/inkscape"
   sodipodi:docname="catstill.svg"
   inkscape:version="1.0 (4035a4fb49, 2020-05-01)"
   id="svg71"
   version="1.1"
   viewBox="0 0 210 297"
   height="200"
   width="230">
  <defs
     id="defs65" />
  <sodipodi:namedview
     inkscape:window-maximized="1"
     inkscape:window-y="-8"
     inkscape:window-x="-8"
     inkscape:window-height="705"
     inkscape:window-width="1366"
     showgrid="false"
     inkscape:document-rotation="0"
     inkscape:current-layer="layer1"
     inkscape:document-units="mm"
     inkscape:cy="83.13193"
     inkscape:cx="40.197451"
     inkscape:zoom="1.2890623"
     inkscape:pageshadow="2"
     inkscape:pageopacity="0.0"
     borderopacity="1.0"
     bordercolor="#666666"
     pagecolor="#ffffff"
     id="base" />
  <metadata
     id="metadata68">
    <rdf:RDF>
      <cc:Work
         rdf:about="">
        <dc:format>image/svg+xml</dc:format>
        <dc:type
           rdf:resource="http://purl.org/dc/dcmitype/StillImage" />
        <dc:title></dc:title>
      </cc:Work>
    </rdf:RDF>
  </metadata>
  <g
     style="display:inline"
     id="layer1"
     inkscape:groupmode="layer"
     inkscape:label="Livello 1">
    <path
       style="fill:#ca0629;stroke-width:5.58646"
       class="filter-darkhead"
       inkscape:label="Path 1"
       id="earin"
       d="m 120.23764,50.912862 c 0,0 35.6876,-46.273171 47.69602,-47.5601038 10.25212,17.8069468 18.83999,62.8261878 17.49688,88.1117358 -0.25949,4.380143 -23.44835,-7.599938 -42.74791,-20.037035 -19.29956,-12.437097 -22.0163,-16.726575 -22.44499,-20.514597 z" />
    <path
       class="filter-head"
       style="fill:#ff3040;stroke-width:5.58646"
       inkscape:label="Path 1"
       id="earout"
       d="M 116.59441,40.961361 C 129.34323,26.542829 149.94866,7.2989614 167.93366,3.3527582 162.46947,18.834156 154.38579,36.181255 149.14962,55.304508 c 0,0 -0.31467,17.076655 -25.04066,0.751922 -12.97875,-8.568944 -7.51455,-15.095069 -7.51455,-15.095069 z" />
    <path
       style="fill:none;stroke:#cb0013;stroke-width:3.61444"
       inkscape:label="Path 1"
       id="border"
       d="m 98.678669,56.203159 c 0,0 53.354311,-53.9510239 69.892371,-54.3679063 12.23562,23.8344973 20.49494,77.8169953 16.17304,98.7967973" />
    <g
       transform="matrix(-0.81701049,-0.32554924,0.32554924,-0.81701049,176.17931,259.50133)"
       inkscape:label="fill"
       id="fill">
      <path
         style="fill:#ff3040"
         inkscape:label="Path 1"
         id="tail"
         d="m -16.769805,80.496823 c 51.350999,76.931587 19.5276316,-52.158717 5.826552,-32.138842 -13.163251,19.30214 -62.56451,92.097089 -41.94751,108.204089 20.29,15.851 45.8257774,-4.33261 56.8328197,-18.28733 C 46.420077,59.347386 38.718159,105.33129 29.192159,55.458287 4.809468,74.759937 41.154693,74.2355 20.380693,59.7565 14.472549,40.90392 -12.176995,139.00174 -0.55504637,112.45246 38.242951,23.82197 -16.769805,80.496823 -16.769805,80.496823 Z" />
      <path
         style="fill:#e40005"
         d="m -49.013584,112.95425 8.768448,-16.634437 c 0,0 12.832732,30.313707 51.023386,26.000877 l -6.8361933,15.95405 c -14.0684497,4.23481 -40.2575757,-7.07631 -52.9556407,-25.32049 z"
         sodipodi:nodetypes="ccccc"
         inkscape:label="Path 1"
         id="tailpiece" />
      <path
         d="m -16.769805,80.496823 c 51.350999,76.931587 19.5276316,-52.158717 5.826552,-32.138842 -13.163251,19.30214 -62.56451,92.097089 -41.94751,108.204089 20.29,15.851 45.8257769,-4.33261 56.8328197,-18.28733 C 46.420077,59.347386 38.718159,105.33129 29.192159,55.458287 4.809468,74.759937 41.154693,74.2355 20.380693,59.7565 14.472549,40.90392 -12.176995,139.00174 -0.55504638,112.45246 38.242951,23.82197 -16.769805,80.496823 -16.769805,80.496823 Z"
         id="tail-6"
         inkscape:label="Path 1"
         style="fill:none;stroke:#000000;stroke-width:4.17326" />
    </g>
    <path
       class="filter-skin"
       style="fill:#ffffda;stroke-width:5.58646"
       inkscape:label="Path 1"
       id="skin"
       d="m 228.86092,173.20409 c -1.70773,71.99951 -65.91158,122.05448 -147.217842,122.05448 -81.3062645,0 -143.507366,-50.13103 -147.21782,-122.05448 C -69.176669,103.38261 -24.346046,36.164921 81.643078,34.453474 171.08173,33.009179 230.6976,95.762264 228.86092,173.20409 Z" />
    <path
       style="fill:#ff3040;stroke-width:5.58646"
       inkscape:label="Path 1"
       id="head"
       d="M -64.785292,178.42536 C -32.446368,183.55581 44.122004,154.63422 68.948641,105.8556 99.407353,155.02554 161.37454,188.14115 227.39665,177.85874 236.77099,142.67085 204.34723,27.341885 73.109686,34.307551 -81.516238,43.102188 -66.03628,177.36905 -64.785292,178.42536 Z" />
    <g
       transform="matrix(1.2583907,-0.01145141,0.01145141,1.2583907,80.099377,209.2463)"
       style="fill:none;stroke:#000000;stroke-width:4.052"
       inkscape:label="Group 2"
       id="mounth">
      <path
         class="filter-eyes"
         inkscape:label="Path 1"
         id="path_59"
         d="m -33.456697,12.532512 c 12.005,-0.576 19.651,-6.9379999 22.424,-17.0459999" />
      <path
         class="filter-eyes"
         inkscape:label="Path 1"
         id="path_57"
         d="m -12.564,-13.772 c 0,8.698 2.175,23.799 25.128,27.544" />
    </g>
    <g
       transform="matrix(0.85469497,0.00420728,-0.00420728,0.85469497,64.006455,164.70525)"
       inkscape:label="Group 2"
       id="eyes">
      <path
         inkscape:label="Path 1"
         id="path_55"
         d="m 99.137082,0.47133908 c -0.345,5.90900052 -5.103999,8.41500052 -10.032999,8.12800052 -4.929,-0.287 -8.687999,-4.571 -8.396999,-9.56600052 0.291,-4.99499948 4.521999,-8.81099948 9.450999,-8.52399948 4.929,0.287 9.351999,3.566 8.978999,9.96199948 z" />
      <path
         inkscape:label="Path 1"
         id="path_53"
         d="m -63.389799,0.71953387 c 0,5.91899953 -4.606999,8.69799953 -9.543999,8.69799953 -4.937,0 -8.939999,-4.056 -8.939999,-9.05999953 0,-5.00400047 4.002999,-9.05999957 8.939999,-9.05999957 4.937,0 9.543999,3.0149991 9.543999,9.42199957 z" />
    </g>
    <g
       style="display:inline"
       id="fill-3"
       inkscape:label="fill"
       transform="matrix(-0.14624833,-0.05827469,0.05827469,-0.14624833,43.310763,44.134299)" />
  </g>
</svg>
