<?xml version="1.0" encoding="UTF-8" standalone="no"?>
<svg
   xmlns:dc="http://purl.org/dc/elements/1.1/"
   xmlns:cc="http://creativecommons.org/ns#"
   xmlns:rdf="http://www.w3.org/1999/02/22-rdf-syntax-ns#"
   xmlns:svg="http://www.w3.org/2000/svg"
   xmlns="http://www.w3.org/2000/svg"
   xmlns:xlink="http://www.w3.org/1999/xlink"
   xmlns:sodipodi="http://sodipodi.sourceforge.net/DTD/sodipodi-0.dtd"
   xmlns:inkscape="http://www.inkscape.org/namespaces/inkscape"
   width="425"
   height="125"
   viewBox="0 0 210 297"
   version="1.1"
   id="svg8"
   inkscape:version="1.0 (4035a4fb49, 2020-05-01)"
   sodipodi:docname="logo.svg">
  <defs
     id="defs2">
    <rect
       id="rect63"
       height="21.009529"
       width="71.968812"
       y="33.07883"
       x="1.6390413" />
    <rect
       id="rect1025"
       height="255.05962"
       width="248.78766"
       y="162.88116"
       x="155.39618" />
    <rect
       id="rect19"
       height="46.39799"
       width="196.81728"
       y="141.06486"
       x="7.1093694" />
    <linearGradient
       inkscape:collect="always"
       xlink:href="#linearGradient887"
       id="linearGradient889"
       x1="157.64493"
       y1="163.70047"
       x2="157.65999"
       y2="160.31049"
       gradientUnits="userSpaceOnUse"
       gradientTransform="matrix(0.45982922,0,0,0.45982922,-0.04898124,-47.754486)" />
    <linearGradient
       inkscape:collect="always"
       id="linearGradient887">
      <stop
         style="stop-color:#f3c700;stop-opacity:1;"
         offset="0"
         id="stop883" />
      <stop
         style="stop-color:#f3c700;stop-opacity:0;"
         offset="1"
         id="stop885" />
    </linearGradient>
    <linearGradient
       gradientUnits="userSpaceOnUse"
       y2="160.31049"
       x2="157.65999"
       y1="163.70047"
       x1="157.64493"
       id="linearGradient889-7"
       xlink:href="#linearGradient887"
       inkscape:collect="always"
       gradientTransform="matrix(0.45982922,0,0,0.45982922,-2.6667522,-47.791047)" />
  </defs>
  <sodipodi:namedview
     showguides="false"
     id="base"
     pagecolor="#000"
     bordercolor="#666666"
     borderopacity="1.0"
     inkscape:pageopacity="0.0"
     inkscape:pageshadow="2"
     inkscape:zoom="2"
     inkscape:cx="230.87111"
     inkscape:cy="107.01851"
     inkscape:document-units="mm"
     inkscape:current-layer="text61"
     inkscape:document-rotation="0"
     showgrid="false"
     inkscape:window-width="1366"
     inkscape:window-height="705"
     inkscape:window-x="-8"
     inkscape:window-y="-8"
     inkscape:window-maximized="1" />
  <metadata
     id="metadata5">
    <rdf:RDF>
      <cc:Work
         rdf:about="">
        <dc:format>image/svg+xml</dc:format>
        <dc:type
           rdf:resource="http://purl.org/dc/dcmitype/StillImage" />
        <dc:title />
      </cc:Work>
    </rdf:RDF>
  </metadata>
  <g
     inkscape:label="Livello 1"
     inkscape:groupmode="layer"
     id="layer1">
    <g
       transform="matrix(5.872635,0,0,5.872635,-420.9375,1.3863858e-5)"
       style="font-style:normal;font-variant:normal;font-weight:normal;font-stretch:normal;font-size:18.7948px;line-height:1.25;font-family:'Product Sans';-inkscape-font-specification:'Product Sans';fill:#ffffff;stroke-width:0.881004"
       id="text25"
       aria-label="Lottie Cat Maker">
      <g
         style="font-size:8.99085px;line-height:1.25;font-family:'Product Sans';-inkscape-font-specification:'Product Sans';white-space:pre;shape-inside:url(#rect63)"
         id="text61"
         transform="matrix(2.0877316,0,0,2.0877316,-3.8715986,-37.759588)"
         aria-label="Timmy">
        <ellipse
           ry="4.2925458"
           rx="4.283309"
           cy="25.786015"
           cx="71.118637"
           id="path847"
           style="fill:#ffffff;fill-opacity:0;fill-rule:evenodd;stroke:#f3c700;stroke-width:0.714115;stroke-linecap:round;stroke-linejoin:round;stroke-miterlimit:4;stroke-dasharray:none;stroke-opacity:1" />
        <ellipse
           style="fill:url(#linearGradient889);fill-opacity:1;fill-rule:evenodd;stroke:#f3c700;stroke-width:0.0555851;stroke-linecap:round;stroke-linejoin:round;stroke-miterlimit:4;stroke-dasharray:none;stroke-opacity:1"
           id="path859-5"
           cx="72.429024"
           cy="26.736565"
           rx="0.48514006"
           ry="0.7781443" />
        <path
           sodipodi:nodetypes="cscc"
           id="path1124"
           d="m 69.36999,24.365566 c 0,0 0.704808,-0.659735 1.743314,-0.669452 0.997948,-0.0093 1.801307,0.675807 1.801307,0.675807 v 0"
           style="fill:none;stroke:#f3c700;stroke-width:0.296335;stroke-linecap:round;stroke-linejoin:round;stroke-miterlimit:4;stroke-dasharray:none;stroke-opacity:1" />
        <path
           style="font-style:normal;font-variant:normal;font-weight:normal;font-stretch:normal;font-size:8.99085px;line-height:1.25;font-family:'Product Sans';-inkscape-font-specification:'Product Sans';white-space:pre;shape-inside:url(#rect63);fill:#ffffff;stroke-width:0.845764"
           d="M 6.0906455,34.967946 V 40.38835 H 5.2965738 V 34.967946 H 3.5703305 v -0.759547 h 4.246559 v 0.759547 z"
           id="path67" />
        <path
           style="font-style:normal;font-variant:normal;font-weight:normal;font-stretch:normal;font-size:8.99085px;line-height:1.25;font-family:'Product Sans';-inkscape-font-specification:'Product Sans';white-space:pre;shape-inside:url(#rect63);fill:#ffffff;stroke-width:0.845764"
           d="m 9.2735415,34.700379 q 0,0.233043 -0.163993,0.397035 -0.163993,0.163994 -0.397036,0.163994 -0.233043,0 -0.397036,-0.163994 -0.163993,-0.163992 -0.163993,-0.397035 0,-0.233043 0.163993,-0.397037 0.163993,-0.163993 0.397036,-0.163993 0.233043,0 0.397036,0.163993 0.163993,0.163994 0.163993,0.397037 z m -0.163993,1.458674 v 4.229297 h -0.794072 v -4.229297 z"
           id="path69" />
        <path
           style="font-style:normal;font-variant:normal;font-weight:normal;font-stretch:normal;font-size:8.99085px;line-height:1.25;font-family:'Product Sans';-inkscape-font-specification:'Product Sans';white-space:pre;shape-inside:url(#rect63);fill:#ffffff;stroke-width:0.845764"
           d="m 10.945435,40.38835 h -0.794072 v -4.229297 h 0.759547 v 0.586923 h 0.03453 q 0.181255,-0.310723 0.552399,-0.517873 0.379773,-0.207148 0.750915,-0.207148 0.466085,0 0.819965,0.21578 0.35388,0.21578 0.517873,0.595554 0.526505,-0.811334 1.458676,-0.811334 0.733653,0 1.13069,0.448823 0.397036,0.448823 0.397036,1.277419 v 2.641153 h -0.794073 v -2.520315 q 0,-0.595554 -0.21578,-0.85449 -0.21578,-0.267569 -0.725022,-0.267569 -0.457454,0 -0.768178,0.388405 -0.310724,0.388405 -0.310724,0.914909 v 2.33906 H 12.96514 v -2.520315 q 0,-0.595554 -0.21578,-0.85449 -0.21578,-0.267569 -0.725023,-0.267569 -0.457454,0 -0.768178,0.388405 -0.310724,0.388405 -0.310724,0.914909 z"
           id="path71" />
        <path
           style="font-style:normal;font-variant:normal;font-weight:normal;font-stretch:normal;font-size:8.99085px;line-height:1.25;font-family:'Product Sans';-inkscape-font-specification:'Product Sans';white-space:pre;shape-inside:url(#rect63);fill:#ffffff;stroke-width:0.845764"
           d="m 18.295455,40.38835 h -0.794071 v -4.229297 h 0.759547 v 0.586923 h 0.03452 q 0.181256,-0.310723 0.552399,-0.517873 0.379773,-0.207148 0.750916,-0.207148 0.466084,0 0.819965,0.21578 0.35388,0.21578 0.517872,0.595554 0.526505,-0.811334 1.458676,-0.811334 0.733653,0 1.130689,0.448823 0.397038,0.448823 0.397038,1.277419 v 2.641153 h -0.79407 v -2.520315 q 0,-0.595554 -0.215781,-0.85449 -0.21578,-0.267569 -0.725022,-0.267569 -0.457454,0 -0.768178,0.388405 -0.310724,0.388405 -0.310724,0.914909 v 2.33906 H 20.31516 v -2.520315 q 0,-0.595554 -0.21578,-0.85449 -0.21578,-0.267569 -0.725023,-0.267569 -0.457454,0 -0.768177,0.388405 -0.310725,0.388405 -0.310725,0.914909 z"
           id="path73" />
        <path
           style="font-style:normal;font-variant:normal;font-weight:normal;font-stretch:normal;font-size:8.99085px;line-height:1.25;font-family:'Product Sans';-inkscape-font-specification:'Product Sans';white-space:pre;shape-inside:url(#rect63);fill:#ffffff;stroke-width:0.845764"
           d="m 28.547588,36.159053 -2.649785,6.093641 h -0.819964 l 0.983958,-2.131911 -1.743506,-3.96173 h 0.863122 l 1.260159,3.038189 h 0.01727 l 1.225632,-3.038189 z"
           id="path75" />
        <path
           d="m 33.854561,40.530902 q -1.374142,0 -2.298879,-0.924735 -0.916094,-0.924735 -0.916094,-2.30752 0,-1.382784 0.916094,-2.298879 0.916094,-0.93338 2.298879,-0.93338 1.400067,0 2.272949,1.011165 l -0.570397,0.55311 q -0.665465,-0.80374 -1.702552,-0.80374 -1.028446,0 -1.719838,0.69139 -0.682749,0.68275 -0.682749,1.780334 0,1.097585 0.682749,1.780335 0.691392,0.69139 1.719838,0.69139 1.080299,0 1.8754,-0.907451 l 0.579041,0.561757 q -0.440762,0.527183 -1.080299,0.821028 -0.63954,0.285196 -1.374142,0.285196 z"
           style="font-style:normal;font-variant:normal;font-weight:normal;font-stretch:normal;font-size:18.7948px;line-height:1.25;font-family:'Product Sans';-inkscape-font-specification:'Product Sans';fill:#ffffff;stroke-width:0.405111"
           id="path925" />
        <path
           d="m 48.282125,40.461767 q -0.518542,0 -0.864238,-0.319771 -0.337053,-0.319769 -0.345697,-0.890168 v -2.368015 h -0.743245 v -0.72596 h 0.743245 v -1.29636 h 0.795101 v 1.29636 h 1.037089 v 0.72596 h -1.037089 v 2.108744 q 0,0.42348 0.164205,0.579039 0.164207,0.146921 0.371622,0.146921 0.09507,0 0.181492,-0.01729 0.09507,-0.02594 0.172848,-0.0605 l 0.250627,0.708675 q -0.311126,0.112356 -0.72596,0.112356 z"
           style="font-style:normal;font-variant:normal;font-weight:normal;font-stretch:normal;font-size:18.7948px;line-height:1.25;font-family:'Product Sans';-inkscape-font-specification:'Product Sans';fill:#ffffff;stroke-width:0.405111"
           id="path929" />
        <path
           d="m 52.501507,40.392627 h -0.795101 v -6.187959 h 0.795101 l 2.151968,3.768085 h 0.03458 l 2.15196,-3.768085 h 0.795105 v 6.187959 h -0.795105 v -3.673019 l 0.03458,-1.03709 h -0.03458 l -1.9359,3.396464 h -0.466693 l -1.935904,-3.396464 h -0.03458 l 0.03458,1.03709 z"
           style="font-style:normal;font-variant:normal;font-weight:normal;font-stretch:normal;font-size:18.7948px;line-height:1.25;font-family:'Product Sans';-inkscape-font-specification:'Product Sans';fill:#ffffff;stroke-width:0.405111"
           id="path931" />
        <path
           d="m 59.186012,39.096268 q 0,0.311123 0.25927,0.518544 0.267916,0.207415 0.622255,0.207415 0.50126,0 0.890164,-0.371625 0.397552,-0.37162 0.397552,-0.87288 -0.37162,-0.293839 -1.037085,-0.293839 -0.483975,0 -0.812391,0.233344 -0.319765,0.233345 -0.319765,0.579041 z m 1.028446,-3.076695 q 0.881525,0 1.391424,0.47533 0.509899,0.46669 0.509899,1.28772 v 2.610004 h -0.760528 v -0.587684 h -0.03458 q -0.492614,0.725959 -1.313643,0.725959 -0.700036,0 -1.175366,-0.414836 -0.466689,-0.414834 -0.466689,-1.037084 0,-0.656824 0.492615,-1.04573 0.50126,-0.388909 1.330929,-0.388909 0.708679,0 1.166725,0.259274 v -0.181495 q 0,-0.414834 -0.32841,-0.70003 -0.32841,-0.293844 -0.769175,-0.293844 -0.665465,0 -1.054369,0.561755 l -0.700036,-0.44076 q 0.579041,-0.82967 1.711195,-0.82967 z"
           style="font-style:normal;font-variant:normal;font-weight:normal;font-stretch:normal;font-size:18.7948px;line-height:1.25;font-family:'Product Sans';-inkscape-font-specification:'Product Sans';fill:#ffffff;stroke-width:0.405111"
           id="path933" />
        <path
           d="m 66.737443,40.392627 h -0.959306 l -1.322284,-1.996395 -0.648181,0.639536 v 1.356859 h -0.795103 v -6.187959 h 0.795103 v 3.811299 l 1.832186,-1.858114 h 1.019804 v 0.03458 l -1.650698,1.642055 1.728479,2.523579 z"
           style="font-style:normal;font-variant:normal;font-weight:normal;font-stretch:normal;font-size:18.7948px;line-height:1.25;font-family:'Product Sans';-inkscape-font-specification:'Product Sans';fill:#ffffff;stroke-width:0.405111"
           id="path935" />
        <path
           d="m 68.94814,40.530902 q -0.93338,0 -1.538344,-0.639535 -0.604969,-0.639539 -0.604969,-1.61613 0,-0.967949 0.587684,-1.607484 0.587684,-0.64818 1.503774,-0.64818 0.942026,0 1.495135,0.61361 0.56176,0.604969 0.56176,1.702555 l -0.0086,0.08642 h -3.327324 q 0.01729,0.622255 0.414835,1.00252 0.397554,0.380265 0.950665,0.380265 0.76053,0 1.192649,-0.76053 l 0.70868,0.345694 q -0.285199,0.535831 -0.795101,0.838315 -0.501259,0.30248 -1.140799,0.30248 z m -1.270429,-2.765564 h 2.428515 q -0.03458,-0.440765 -0.362985,-0.725961 -0.319766,-0.293844 -0.86424,-0.293844 -0.449401,0 -0.777815,0.276559 -0.319765,0.276555 -0.423475,0.743246 z"
           style="font-style:normal;font-variant:normal;font-weight:normal;font-stretch:normal;font-size:18.7948px;line-height:1.25;font-family:'Product Sans';-inkscape-font-specification:'Product Sans';fill:#ffffff;stroke-width:0.405111"
           id="path937" />
        <path
           d="m 72.466946,40.392627 h -0.795099 v -4.234774 h 0.76053 v 0.69139 h 0.03458 q 0.120995,-0.337055 0.492615,-0.5704 0.380265,-0.241985 0.743249,-0.241985 0.345696,0 0.58768,0.10371 l -0.241984,0.76917 q -0.14692,-0.0605 -0.466691,-0.0605 -0.449404,0 -0.786459,0.36298 -0.32841,0.362979 -0.32841,0.846954 z"
           style="font-style:normal;font-variant:normal;font-weight:normal;font-stretch:normal;font-size:18.7948px;line-height:1.25;font-family:'Product Sans';-inkscape-font-specification:'Product Sans';fill:#ffffff;stroke-width:0.405111"
           id="path939" />
        <g
           style="font-style:normal;font-variant:normal;font-weight:normal;font-stretch:normal;font-size:18.7948px;line-height:1.25;font-family:'Product Sans';-inkscape-font-specification:'Product Sans';fill:#ffffff;stroke-width:0.881004"
           id="g1021"
           transform="matrix(0.05819386,0,0,0.05819386,45.14434,111.41311)">
          <g
             aria-label="a"
             id="text1023"
             style="font-style:normal;font-variant:normal;font-weight:normal;font-stretch:normal;font-size:200.703px;line-height:1.25;font-family:'Product Sans';-inkscape-font-specification:'Product Sans';white-space:pre;shape-inside:url(#rect1025);fill:#c27373;fill-opacity:1"
             transform="matrix(0.63425478,0,0,0.63425478,-196.14845,-1453.6728)">
            <path
               d="m 180.08291,316.70463 q 0,7.2253 6.02108,12.04216 6.22178,4.81687 14.45059,4.81687 11.64075,0 20.67237,-8.63022 9.23233,-8.63021 9.23233,-20.27097 -8.63022,-6.82389 -24.08432,-6.82389 -11.23935,0 -18.86605,5.41898 -7.426,5.41897 -7.426,13.44707 z m 23.88362,-71.45014 q 20.47167,0 32.31312,11.03865 11.84146,10.83794 11.84146,29.90469 v 60.6122 h -17.66183 v -13.64778 h -0.80281 q -11.44006,16.85902 -30.50681,16.85902 -16.25691,0 -27.29556,-9.63372 -10.83794,-9.63373 -10.83794,-24.08432 0,-15.2534 11.44005,-24.28502 11.64075,-9.03162 30.90821,-9.03162 16.45762,0 27.09486,6.02108 v -4.21476 q 0,-9.63373 -7.6267,-16.25691 -7.62671,-6.82389 -17.86254,-6.82389 -15.4541,0 -24.48572,13.04567 L 164.2274,264.52194 q 13.44708,-19.26745 39.73913,-19.26745 z"
               style="font-style:normal;font-variant:normal;font-weight:normal;font-stretch:normal;font-size:200.703px;font-family:'Product Sans';-inkscape-font-specification:'Product Sans';fill:#c27373;fill-opacity:1"
               id="path1029" />
          </g>
          <path
             id="path942"
             d="m 3.7704473,-1330.4467 c 6.6585597,3.5457 6.09439,28.5693 -1.77441,57.8141 0,26.4469 -8.05244,66.6933 -67.4312513,66.6933 -59.378806,0 -67.431246,-40.2461 -67.431246,-66.693 -7.8688,-29.2451 -8.43297,-54.2684 -1.77441,-57.8144 4.97268,-2.6502 17.63021,4.73 31.99671,18.1518 10.627431,-4.8969 23.396531,-7.7342 37.208946,-7.7342 13.812416,0 26.581521,2.8373 37.208946,7.7345 14.366505,-13.4221 27.0240403,-20.8023 31.9967153,-18.1521 z"
             style="fill:none;fill-opacity:1;stroke:#ee5f5f;stroke-width:3.66979;stroke-miterlimit:4;stroke-dasharray:none;stroke-opacity:1" />
          <g
             id="g960" />
          <g
             id="g962" />
          <g
             id="g964" />
          <g
             id="g966" />
          <g
             id="g968" />
          <g
             id="g970" />
          <g
             id="g972" />
          <g
             id="g974" />
          <g
             id="g976" />
          <g
             id="g978" />
          <g
             id="g980" />
          <g
             id="g982" />
          <g
             id="g984" />
          <g
             id="g986" />
          <g
             id="g988" />
        </g>
        <g
           aria-label="Francesco's "
           transform="matrix(1.5311323,0,0,1.5311323,-8.4816085,-201.14971)"
           id="text17"
           style="font-style:normal;font-variant:normal;font-weight:normal;font-stretch:normal;font-size:10.5833px;line-height:1.25;font-family:'Product Sans';-inkscape-font-specification:'Product Sans';white-space:pre;shape-inside:url(#rect19);fill:#ffffff;fill-opacity:1;stroke:none">
          <path
             d="m 8.8450361,147.51419 v 3.24908 H 7.8713726 v -7.57765 h 4.4238194 v 0.93133 H 8.8450361 v 2.48708 h 3.1114899 v 0.91016 z"
             style="font-style:normal;font-variant:normal;font-weight:normal;font-stretch:normal;font-family:'Product Sans';-inkscape-font-specification:'Product Sans';fill:#ffffff"
             id="path27" />
          <path
             d="M 13.988024,150.76327 H 13.01436 v -5.18582 h 0.93133 v 0.84666 h 0.04233 q 0.148166,-0.41275 0.603248,-0.69849 0.465665,-0.29634 0.910163,-0.29634 0.423332,0 0.719665,0.127 l -0.296333,0.94192 q -0.179916,-0.0741 -0.571498,-0.0741 -0.550331,0 -0.96308,0.4445 -0.402165,0.4445 -0.402165,1.03717 z"
             style="font-style:normal;font-variant:normal;font-weight:normal;font-stretch:normal;font-family:'Product Sans';-inkscape-font-specification:'Product Sans';fill:#ffffff"
             id="path29" />
          <path
             d="m 17.361451,149.17577 q 0,0.381 0.317499,0.635 0.328082,0.254 0.761997,0.254 0.613832,0 1.09008,-0.45508 0.486832,-0.45509 0.486832,-1.06892 -0.455082,-0.35983 -1.269996,-0.35983 -0.592665,0 -0.99483,0.28575 -0.391582,0.28575 -0.391582,0.70908 z m 1.259412,-3.76765 q 1.079497,0 1.703912,0.58208 0.624414,0.5715 0.624414,1.57691 v 3.19616 h -0.93133 v -0.71967 h -0.04233 q -0.603248,0.889 -1.608662,0.889 -0.857247,0 -1.439329,-0.508 -0.571498,-0.508 -0.571498,-1.27 0,-0.80433 0.603248,-1.28057 0.613832,-0.47625 1.629828,-0.47625 0.867831,0 1.428746,0.3175 v -0.22225 q 0,-0.508 -0.402166,-0.85725 -0.402165,-0.35983 -0.941913,-0.35983 -0.814914,0 -1.291163,0.68791 l -0.857247,-0.53975 q 0.709081,-1.01599 2.095493,-1.01599 z"
             style="font-style:normal;font-variant:normal;font-weight:normal;font-stretch:normal;font-family:'Product Sans';-inkscape-font-specification:'Product Sans';fill:#ffffff"
             id="path31" />
          <path
             d="m 22.047372,145.57745 h 0.93133 v 0.71966 h 0.04233 q 0.22225,-0.38099 0.677332,-0.63499 0.465665,-0.254 0.96308,-0.254 0.952497,0 1.460495,0.55033 0.518582,0.53975 0.518582,1.54516 v 3.25966 H 25.66686 v -3.19616 q -0.03175,-1.27 -1.280579,-1.27 -0.582081,0 -0.973663,0.47625 -0.391583,0.46567 -0.391583,1.12183 v 2.86808 h -0.973663 z"
             style="font-style:normal;font-variant:normal;font-weight:normal;font-stretch:normal;font-family:'Product Sans';-inkscape-font-specification:'Product Sans';fill:#ffffff"
             id="path33" />
          <path
             d="m 30.164431,150.9326 q -1.15358,0 -1.915577,-0.78317 -0.751415,-0.80433 -0.751415,-1.97907 0,-1.19591 0.751415,-1.97908 0.761997,-0.78316 1.915577,-0.78316 0.793747,0 1.386412,0.40216 0.592665,0.39158 0.888997,1.09008 l -0.888997,0.37042 q -0.412749,-0.97367 -1.449912,-0.97367 -0.666748,0 -1.15358,0.53975 -0.476248,0.53975 -0.476248,1.3335 0,0.79375 0.476248,1.33349 0.486832,0.53975 1.15358,0.53975 1.068913,0 1.502829,-0.97366 l 0.86783,0.37041 q -0.285749,0.6985 -0.89958,1.10067 -0.603248,0.39158 -1.407579,0.39158 z"
             style="font-style:normal;font-variant:normal;font-weight:normal;font-stretch:normal;font-family:'Product Sans';-inkscape-font-specification:'Product Sans';fill:#ffffff"
             id="path35" />
          <path
             d="m 35.579112,150.9326 q -1.142997,0 -1.883828,-0.78317 -0.740831,-0.78316 -0.740831,-1.97907 0,-1.18533 0.719665,-1.9685 0.719664,-0.79374 1.841494,-0.79374 1.15358,0 1.830911,0.75141 0.687914,0.74083 0.687914,2.08491 l -0.01058,0.10583 h -4.07457 q 0.02117,0.762 0.507998,1.22767 0.486832,0.46566 1.164163,0.46566 0.93133,0 1.460495,-0.93133 l 0.867831,0.42333 q -0.349249,0.65617 -0.973664,1.02658 -0.613831,0.37042 -1.396995,0.37042 z m -1.555745,-3.38666 h 2.973907 q -0.04233,-0.53975 -0.444499,-0.88899 -0.391582,-0.35984 -1.05833,-0.35984 -0.550331,0 -0.952497,0.33867 -0.391582,0.33867 -0.518581,0.91016 z"
             style="font-style:normal;font-variant:normal;font-weight:normal;font-stretch:normal;font-family:'Product Sans';-inkscape-font-specification:'Product Sans';fill:#ffffff"
             id="path37" />
          <path
             d="m 42.945254,149.32394 q 0,0.67733 -0.592665,1.14299 -0.592664,0.46567 -1.492245,0.46567 -0.783164,0 -1.375829,-0.40217 -0.592665,-0.41274 -0.846664,-1.07949 l 0.867831,-0.37042 q 0.190499,0.46567 0.550331,0.73025 0.370416,0.254 0.804331,0.254 0.465665,0 0.772581,-0.20108 0.317499,-0.20109 0.317499,-0.47625 0,-0.49742 -0.761998,-0.73025 l -0.888997,-0.22225 q -1.513412,-0.381 -1.513412,-1.46049 0,-0.70909 0.571499,-1.13242 0.582081,-0.43391 1.481662,-0.43391 0.687914,0 1.238246,0.32808 0.560914,0.32808 0.783164,0.87841 l -0.867831,0.35984 q -0.148166,-0.32809 -0.486832,-0.508 -0.328082,-0.1905 -0.740831,-0.1905 -0.380998,0 -0.687914,0.1905 -0.296332,0.1905 -0.296332,0.46566 0,0.4445 0.83608,0.635 l 0.783164,0.20108 q 1.545162,0.381 1.545162,1.55575 z"
             style="font-style:normal;font-variant:normal;font-weight:normal;font-stretch:normal;font-family:'Product Sans';-inkscape-font-specification:'Product Sans';fill:#ffffff"
             id="path39" />
          <path
             d="m 46.225416,150.9326 q -1.153579,0 -1.915577,-0.78317 -0.751414,-0.80433 -0.751414,-1.97907 0,-1.19591 0.751414,-1.97908 0.761998,-0.78316 1.915577,-0.78316 0.793748,0 1.386413,0.40216 0.592665,0.39158 0.888997,1.09008 l -0.888997,0.37042 q -0.412749,-0.97367 -1.449912,-0.97367 -0.666748,0 -1.15358,0.53975 -0.476248,0.53975 -0.476248,1.3335 0,0.79375 0.476248,1.33349 0.486832,0.53975 1.15358,0.53975 1.068913,0 1.502828,-0.97366 l 0.867831,0.37041 q -0.285749,0.6985 -0.899581,1.10067 -0.603248,0.39158 -1.407579,0.39158 z"
             style="font-style:normal;font-variant:normal;font-weight:normal;font-stretch:normal;font-family:'Product Sans';-inkscape-font-specification:'Product Sans';fill:#ffffff"
             id="path41" />
          <path
             d="m 56.006205,143.18562 v 2.39183 h -0.888997 v -2.39183 z"
             style="font-style:normal;font-variant:normal;font-weight:normal;font-stretch:normal;font-family:'Product Sans';-inkscape-font-specification:'Product Sans';fill:#ffffff"
             id="path45" />
          <path
             d="m 61.031949,149.32394 q 0,0.67733 -0.592665,1.14299 -0.592665,0.46567 -1.492245,0.46567 -0.783164,0 -1.375829,-0.40217 -0.592665,-0.41274 -0.846664,-1.07949 l 0.86783,-0.37042 q 0.1905,0.46567 0.550332,0.73025 0.370416,0.254 0.804331,0.254 0.465665,0 0.772581,-0.20108 0.317499,-0.20109 0.317499,-0.47625 0,-0.49742 -0.761998,-0.73025 l -0.888997,-0.22225 q -1.513412,-0.381 -1.513412,-1.46049 0,-0.70909 0.571498,-1.13242 0.582082,-0.43391 1.481662,-0.43391 0.687915,0 1.238246,0.32808 0.560915,0.32808 0.783164,0.87841 l -0.86783,0.35984 q -0.148166,-0.32809 -0.486832,-0.508 -0.328082,-0.1905 -0.740831,-0.1905 -0.380999,0 -0.687914,0.1905 -0.296333,0.1905 -0.296333,0.46566 0,0.4445 0.836081,0.635 l 0.783164,0.20108 q 1.545162,0.381 1.545162,1.55575 z"
             style="font-style:normal;font-variant:normal;font-weight:normal;font-stretch:normal;font-family:'Product Sans';-inkscape-font-specification:'Product Sans';fill:#ffffff"
             id="path47" />
        </g>
        <ellipse
           ry="0.7781443"
           rx="0.48514006"
           cy="26.700001"
           cx="69.811249"
           id="path859-5-3"
           style="fill:url(#linearGradient889-7);fill-opacity:1;fill-rule:evenodd;stroke:#f3c700;stroke-width:0.0555851;stroke-linecap:round;stroke-linejoin:round;stroke-miterlimit:4;stroke-dasharray:none;stroke-opacity:1" />
      </g>
    </g>
  </g>
</svg>
