<?xml version="1.0" encoding="UTF-8" standalone="no"?>
<svg
   xmlns:dc="http://purl.org/dc/elements/1.1/"
   xmlns:cc="http://creativecommons.org/ns#"
   xmlns:rdf="http://www.w3.org/1999/02/22-rdf-syntax-ns#"
   xmlns:svg="http://www.w3.org/2000/svg"
   xmlns="http://www.w3.org/2000/svg"
   xmlns:xlink="http://www.w3.org/1999/xlink"
   xmlns:sodipodi="http://sodipodi.sourceforge.net/DTD/sodipodi-0.dtd"
   xmlns:inkscape="http://www.inkscape.org/namespaces/inkscape"
   width="605"
   height="140"
   viewBox="0 0 210 297"
   version="1.1"
   id="svg81"
   inkscape:version="1.0 (4035a4fb49, 2020-05-01)"
   sodipodi:docname="logo.svg">
  <defs
     id="defs75">
    <linearGradient
       id="linearGradient997"
       inkscape:collect="always">
      <stop
         id="stop993"
         offset="0"
         style="stop-color:#fe7684;stop-opacity:1" />
      <stop
         id="stop995"
         offset="1"
         style="stop-color:#eb5465;stop-opacity:1" />
    </linearGradient>
    <filter
       style="color-interpolation-filters:sRGB;"
       inkscape:label="Drop Shadow"
       id="filter1887">
      <feFlood
         flood-opacity="0.498039"
         flood-color="rgb(0,0,0)"
         result="flood"
         id="feFlood1877" />
      <feComposite
         in="SourceGraphic"
         in2="flood"
         operator="in"
         result="composite1"
         id="feComposite1879" />
      <feGaussianBlur
         in="composite1"
         stdDeviation="22.7545"
         result="blur"
         id="feGaussianBlur1881" />
      <feOffset
         dx="4.57967e-15"
         dy="6"
         result="offset"
         id="feOffset1883" />
      <feComposite
         in="SourceGraphic"
         in2="offset"
         operator="over"
         result="composite2"
         id="feComposite1885" />
    </filter>
    <filter
       id="filter1887-8"
       inkscape:label="Drop Shadow"
       style="color-interpolation-filters:sRGB">
      <feFlood
         id="feFlood1877-8"
         result="flood"
         flood-color="rgb(0,0,0)"
         flood-opacity="0.498039" />
      <feComposite
         id="feComposite1879-6"
         result="composite1"
         operator="in"
         in2="flood"
         in="SourceGraphic" />
      <feGaussianBlur
         id="feGaussianBlur1881-8"
         result="blur"
         stdDeviation="22.7545"
         in="composite1" />
      <feOffset
         id="feOffset1883-4"
         result="offset"
         dy="6"
         dx="4.57967e-15" />
      <feComposite
         id="feComposite1885-4"
         result="composite2"
         operator="over"
         in2="offset"
         in="SourceGraphic" />
    </filter>
    <filter
       style="color-interpolation-filters:sRGB"
       inkscape:label="Drop Shadow"
       id="filter1887-8-5">
      <feFlood
         flood-opacity="0.498039"
         flood-color="rgb(0,0,0)"
         result="flood"
         id="feFlood1877-8-4" />
      <feComposite
         in="SourceGraphic"
         in2="flood"
         operator="in"
         result="composite1"
         id="feComposite1879-6-8" />
      <feGaussianBlur
         in="composite1"
         stdDeviation="22.7545"
         result="blur"
         id="feGaussianBlur1881-8-3" />
      <feOffset
         dx="4.57967e-15"
         dy="6"
         result="offset"
         id="feOffset1883-4-6" />
      <feComposite
         in="SourceGraphic"
         in2="offset"
         operator="over"
         result="composite2"
         id="feComposite1885-4-5" />
    </filter>
    <radialGradient
       gradientUnits="userSpaceOnUse"
       gradientTransform="matrix(0,-0.96429217,0.99688382,2.3374657e-8,-7.5924647,160.16921)"
       r="75.401864"
       fy="90.825874"
       fx="82.734962"
       cy="90.825874"
       cx="82.734962"
       id="radialGradient999"
       xlink:href="#linearGradient997"
       inkscape:collect="always" />
    <filter
       id="filter1026"
       inkscape:label="Drop Shadow"
       style="color-interpolation-filters:sRGB;">
      <feFlood
         id="feFlood1016"
         result="flood"
         flood-color="rgb(0,0,0)"
         flood-opacity="0.498039" />
      <feComposite
         id="feComposite1018"
         result="composite1"
         operator="in"
         in2="flood"
         in="SourceGraphic" />
      <feGaussianBlur
         id="feGaussianBlur1020"
         result="blur"
         stdDeviation="6.58683"
         in="composite1" />
      <feOffset
         id="feOffset1022"
         result="offset"
         dy="1.2"
         dx="4.57967e-15" />
      <feComposite
         id="feComposite1024"
         result="composite2"
         operator="over"
         in2="offset"
         in="SourceGraphic" />
    </filter>
  </defs>
  <sodipodi:namedview
     id="base"
     pagecolor="#333333"
     bordercolor="#666666"
     borderopacity="1.0"
     inkscape:pageopacity="0.0"
     inkscape:pageshadow="2"
     inkscape:zoom="1.4"
     inkscape:cx="262.17626"
     inkscape:cy="76.641818"
     inkscape:document-units="mm"
     inkscape:current-layer="layer1"
     inkscape:document-rotation="0"
     showgrid="false"
     inkscape:window-width="1280"
     inkscape:window-height="967"
     inkscape:window-x="0"
     inkscape:window-y="0"
     inkscape:window-maximized="0" />
  <metadata
     id="metadata78">
    <rdf:RDF>
      <cc:Work
         rdf:about="">
        <dc:format>image/svg+xml</dc:format>
        <dc:type
           rdf:resource="http://purl.org/dc/dcmitype/StillImage" />
        <dc:title />
      </cc:Work>
    </rdf:RDF>
  </metadata>
  <g
     inkscape:label="Livello 1"
     inkscape:groupmode="layer"
     id="layer1">
    <g
       transform="matrix(0.85714285,0,0,0.85714285,24.851868,21.098723)"
       aria-label="Francesco"
       id="text85"
       style="font-size:234.246px;line-height:1.25;font-family:'Product Sans';-inkscape-font-specification:'Product Sans';fill:#ffffff;stroke-width:5.85615">
      <path
         d="m -233.97871,110.588 v 71.91353 h -21.55063 V 14.781388 h 97.91483 v 20.613648 h -76.3642 v 55.047811 h 68.86833 V 110.588 Z"
         style="fill:#ffffff;stroke-width:5.85615"
         id="path1165" />
      <path
         d="m -120.14613,182.50153 h -21.55063 V 67.720985 h 20.61365 v 18.73968 h 0.93698 q 3.27945,-9.135594 13.35202,-15.460236 10.306827,-6.558888 20.14516,-6.558888 9.36984,0 15.928728,2.810952 l -6.558888,20.847894 q -3.982182,-1.639722 -12.649284,-1.639722 -12.180796,0 -21.316386,9.838332 -8.90135,9.838333 -8.90135,22.956113 z"
         style="fill:#ffffff;stroke-width:5.85615"
         id="path1167" />
      <path
         d="m -45.480222,147.36463 q 0,8.43285 7.02738,14.05476 7.261626,5.6219 16.865712,5.6219 13.5862682,0 24.1273383,-10.07258 10.7753157,-10.07258 10.7753157,-23.65884 -10.0725777,-7.96437 -28.10952,-7.96437 -13.117776,0 -22.019124,6.32464 -8.667102,6.32465 -8.667102,15.69449 z m 27.875274,-83.391581 q 23.8930923,0 37.713606,12.88353 13.820515,12.649284 13.820515,34.902651 v 70.7423 H 13.315524 V 166.5728 H 12.37854 q -13.35202178,19.67666 -35.605392,19.67666 -18.973926,0 -31.857456,-11.24381 -12.649284,-11.2438 -12.649284,-28.10952 0,-17.80269 13.352022,-28.34376 13.586268,-10.54107 36.073884,-10.54107 19.20817224,0 31.62321,7.02738 v -4.91917 q 0,-11.243807 -8.9013477,-18.973925 -8.9013481,-7.964364 -20.8478943,-7.964364 -18.036942,0 -28.578012,15.22599 L -63.985656,86.460665 q 15.694482,-22.487616 46.380708,-22.487616 z"
         style="fill:#ffffff;stroke-width:5.85615"
         id="path1169" />
      <path
         d="m 58.235849,67.720985 h 20.613648 v 15.928728 h 0.936984 q 4.919166,-8.432856 14.991744,-14.05476 10.306825,-5.621904 21.316385,-5.621904 21.08214,0 32.32595,12.180792 11.47805,11.946546 11.47805,34.199919 v 72.14777 h -21.55063 v -70.7423 q -0.70274,-28.109517 -28.34376,-28.109517 -12.883535,0 -21.550637,10.54107 -8.667102,10.306827 -8.667102,24.830077 v 63.48067 H 58.235849 Z"
         style="fill:#ffffff;stroke-width:5.85615"
         id="path1171" />
      <path
         d="m 237.89522,186.24946 q -25.53282,0 -42.39853,-17.3342 -16.63147,-17.8027 -16.63147,-43.804 0,-26.469803 16.63147,-43.804007 16.86571,-17.334204 42.39853,-17.334204 17.56845,0 30.68622,8.901348 13.11778,8.667102 19.67667,24.127338 l -19.67667,8.198615 q -9.13559,-21.550637 -32.0917,-21.550637 -14.7575,0 -25.53281,11.946546 -10.54107,11.946551 -10.54107,29.515001 0,17.56845 10.54107,29.51499 10.77531,11.94655 25.53281,11.94655 23.65885,0 33.26293,-21.55063 l 19.20817,8.19861 q -6.32464,15.46023 -19.91091,24.36158 -13.35202,8.6671 -31.15471,8.6671 z"
         style="fill:#ffffff;stroke-width:5.85615"
         id="path1173" />
      <path
         d="m 357.74134,186.24946 q -25.29856,0 -41.69578,-17.3342 -16.39722,-17.33421 -16.39722,-43.804 0,-26.235557 15.92872,-43.569761 15.92873,-17.56845 40.75881,-17.56845 25.53281,0 40.52456,16.631466 15.22599,16.39722 15.22599,46.146465 l -0.23425,2.34246 h -90.18471 q 0.46849,16.86571 11.24381,27.17253 10.77531,10.30683 25.76706,10.30683 20.61365,0 32.32595,-20.61365 l 19.20817,9.36984 q -7.73012,14.52325 -21.55063,22.72186 -13.58627,8.19861 -30.92048,8.19861 z m -34.43416,-74.95872 h 65.82313 q -0.93699,-11.946545 -9.83833,-19.676663 -8.66711,-7.964364 -23.4246,-7.964364 -12.1808,0 -21.08214,7.495872 -8.66711,7.495872 -11.47806,20.145155 z"
         style="fill:#ffffff;stroke-width:5.85615"
         id="path1175" />
      <path
         d="m 520.78019,150.64407 q 0,14.99174 -13.11778,25.29857 -13.11778,10.30682 -33.02869,10.30682 -17.3342,0 -30.45198,-8.90135 -13.11777,-9.13559 -18.73968,-23.89309 l 19.20818,-8.19861 q 4.21642,10.30683 12.18079,16.16298 8.19861,5.6219 17.80269,5.6219 10.30683,0 17.09996,-4.45067 7.02738,-4.45068 7.02738,-10.54107 0,-11.00957 -16.86571,-16.16298 l -19.67666,-4.91916 q -33.49718,-8.43286 -33.49718,-32.325953 0,-15.694482 12.64928,-25.064322 12.88353,-9.604086 32.79444,-9.604086 15.22599,0 27.40678,7.261626 12.41504,7.261626 17.33421,19.442418 l -19.20817,7.964364 q -3.27945,-7.261626 -10.77532,-11.243808 -7.26163,-4.216428 -16.39722,-4.216428 -8.43286,0 -15.22599,4.216428 -6.55889,4.216428 -6.55889,10.306824 0,9.838337 18.50544,14.054757 l 17.3342,4.45068 q 34.19992,8.43285 34.19992,34.43416 z"
         style="fill:#ffffff;stroke-width:5.85615"
         id="path1177" />
      <path
         d="m 593.38182,186.24946 q -25.53282,0 -42.39853,-17.3342 -16.63146,-17.8027 -16.63146,-43.804 0,-26.469803 16.63146,-43.804007 16.86571,-17.334204 42.39853,-17.334204 17.56845,0 30.68623,8.901348 13.11777,8.667102 19.67666,24.127338 l -19.67666,8.198615 q -9.1356,-21.550637 -32.09171,-21.550637 -14.7575,0 -25.53281,11.946546 -10.54107,11.946551 -10.54107,29.515001 0,17.56845 10.54107,29.51499 10.77531,11.94655 25.53281,11.94655 23.65885,0 33.26294,-21.55063 l 19.20817,8.19861 q -6.32464,15.46023 -19.91091,24.36158 -13.35202,8.6671 -31.15472,8.6671 z"
         style="fill:#ffffff;stroke-width:5.85615"
         id="path1179" />
      <path
         d="m 655.13491,125.11126 q 0,-26.469803 16.63146,-43.804007 16.86572,-17.334204 42.39853,-17.334204 25.53281,0 42.16428,17.334204 16.86571,17.334204 16.86571,43.804007 0,26.70404 -16.86571,43.804 -16.63147,17.3342 -42.16428,17.3342 -25.53281,0 -42.39853,-17.3342 -16.63146,-17.33421 -16.63146,-43.804 z m 21.55063,0 q 0,18.50543 10.77532,29.98348 10.77531,11.47806 26.70404,11.47806 15.92873,0 26.70404,-11.47806 10.77532,-11.47805 10.77532,-29.98348 0,-18.27119 -10.77532,-29.749247 -11.00956,-11.7123 -26.70404,-11.7123 -15.69448,0 -26.70404,11.7123 -10.77532,11.478057 -10.77532,29.749247 z"
         style="fill:#ffffff;stroke-width:5.85615"
         id="path1181" />
    </g>
    <text
       id="text89"
       y="133.92429"
       x="692.21155"
       style="font-size:84.8569px;line-height:1.25;font-family:'Product Sans';-inkscape-font-specification:'Product Sans';fill:#ffffff;stroke-width:2.12143"
       xml:space="preserve"><tspan
         style="fill:#ffffff;stroke-width:2.12143"
         y="133.92429"
         x="692.21155"
         id="tspan87"
         sodipodi:role="line">'s</tspan></text>
    <g
       transform="matrix(0.85714285,0,0,0.85714285,24.851868,21.098723)"
       aria-label="Timmy Cat Maker"
       id="text93"
       style="font-size:98.9998px;line-height:1.25;font-family:'Product Sans';-inkscape-font-specification:'Product Sans';fill:#ffffff;fill-opacity:0.604982;stroke-width:2.475">
      <path
         d="m -235.72941,265.98697 v -60.19188 h -19.79996 v -10.69198 h 50.7869 v 10.69198 h -19.79996 v 60.19188 z"
         style="font-style:normal;font-variant:normal;font-weight:normal;font-stretch:normal;font-family:'Product Sans Medium';-inkscape-font-specification:'Product Sans Medium, ';fill:#ffffff;fill-opacity:0.604982;stroke-width:2.475"
         id="path1184" />
      <path
         d="m -193.43175,208.86408 q -3.16799,0 -5.34598,-2.17799 -2.079,-2.178 -2.079,-5.24699 0,-3.069 2.079,-5.24699 2.17799,-2.178 5.34598,-2.178 3.069,0 5.14799,2.178 2.178,2.17799 2.178,5.24699 0,3.06899 -2.178,5.24699 -2.07899,2.17799 -5.14799,2.17799 z m -5.54398,57.12289 v -48.5099 h 10.98897 v 48.5099 z"
         style="font-style:normal;font-variant:normal;font-weight:normal;font-stretch:normal;font-family:'Product Sans Medium';-inkscape-font-specification:'Product Sans Medium, ';fill:#ffffff;fill-opacity:0.604982;stroke-width:2.475"
         id="path1186" />
      <path
         d="m -176.17793,217.47707 h 10.39497 v 6.53398 h 0.594 q 2.277,-3.56399 6.33599,-5.84099 4.05899,-2.27699 8.61298,-2.27699 5.44499,0 9.30598,2.57399 3.96,2.475 5.74199,6.53399 2.475,-3.86099 6.63299,-6.43499 4.15799,-2.67299 9.99898,-2.67299 4.45499,0 7.72198,1.485 3.267,1.38599 5.34599,3.95999 2.178,2.57399 3.267,6.23699 1.08899,3.56399 1.08899,8.01898 v 30.39294 h -10.98897 v -28.51194 q 0,-6.33599 -2.475,-8.81099 -2.37599,-2.57399 -7.02898,-2.57399 -2.673,0 -4.85099,1.188 -2.079,1.18799 -3.564,3.26699 -1.48499,1.98 -2.27699,4.65299 -0.792,2.673 -0.792,5.64299 v 25.14595 H -144.102 v -28.51194 q 0,-6.33599 -2.57399,-8.81099 -2.475,-2.57399 -7.22699,-2.57399 -2.57399,0 -4.65299,1.188 -2.079,1.18799 -3.56399,3.26699 -1.485,1.98 -2.277,4.65299 -0.792,2.673 -0.792,5.64299 v 25.14595 h -10.98897 z"
         style="font-style:normal;font-variant:normal;font-weight:normal;font-stretch:normal;font-family:'Product Sans Medium';-inkscape-font-specification:'Product Sans Medium, ';fill:#ffffff;fill-opacity:0.604982;stroke-width:2.475"
         id="path1188" />
      <path
         d="m -90.5199,217.47707 h 10.39498 v 6.53398 h 0.593998 q 2.276996,-3.56399 6.335988,-5.84099 4.058991,-2.27699 8.612982,-2.27699 5.444989,0 9.305982,2.57399 3.959992,2.475 5.741988,6.53399 2.474995,-3.86099 6.632987,-6.43499 4.157992,-2.67299 9.99898,-2.67299 4.454991,0 7.721984,1.485 3.266994,1.38599 5.34599,3.95999 2.177995,2.57399 3.266993,6.23699 1.088998,3.56399 1.088998,8.01898 v 30.39294 h -10.988978 v -28.51194 q 0,-6.33599 -2.474995,-8.81099 -2.375995,-2.57399 -7.028986,-2.57399 -2.672995,0 -4.85099,1.188 -2.078996,1.18799 -3.563993,3.26699 -1.484997,1.98 -2.276996,4.65299 -0.791998,2.673 -0.791998,5.64299 v 25.14595 h -10.988978 v -28.51194 q 0,-6.33599 -2.573995,-8.81099 -2.474995,-2.57399 -7.226985,-2.57399 -2.573995,0 -4.652991,1.188 -2.078996,1.18799 -3.563993,3.26699 -1.484997,1.98 -2.276995,4.65299 -0.791999,2.673 -0.791999,5.64299 v 25.14595 H -90.5199 Z"
         style="font-style:normal;font-variant:normal;font-weight:normal;font-stretch:normal;font-family:'Product Sans Medium';-inkscape-font-specification:'Product Sans Medium, ';fill:#ffffff;fill-opacity:0.604982;stroke-width:2.475"
         id="path1190" />
      <path
         d="M 9.2193086,263.21497 -10.976651,217.47707 H 1.2993245 L 14.664298,249.652 h 0.494999 L 28.128271,217.47707 H 40.305246 L 9.9123072,287.37093 H -1.7696694 Z"
         style="font-style:normal;font-variant:normal;font-weight:normal;font-stretch:normal;font-family:'Product Sans Medium';-inkscape-font-specification:'Product Sans Medium, ';fill:#ffffff;fill-opacity:0.604982;stroke-width:2.475"
         id="path1192" />
      <path
         d="M 40.64093,265.98697 Z"
         style="font-style:normal;font-variant:normal;font-weight:normal;font-stretch:normal;font-family:'Product Sans Medium';-inkscape-font-specification:'Product Sans Medium, ';fill:#ffffff;fill-opacity:0.604982;stroke-width:2.475"
         id="path1194" />
      <path
         d="m 129.46075,254.79999 q -5.04899,5.93999 -12.17698,9.40498 -7.12798,3.366 -16.03797,3.366 -7.919981,0 -14.651967,-2.772 -6.731987,-2.87099 -11.780977,-7.82098 -4.94999,-5.04899 -7.820984,-11.78098 -2.771995,-6.73199 -2.771995,-14.65197 0,-7.82098 2.771995,-14.55297 2.870994,-6.83099 7.820984,-11.78098 5.04899,-5.04899 11.780977,-7.82098 6.731986,-2.871 14.651967,-2.871 8.21699,0 14.75097,3.069 6.53399,2.96999 11.48398,8.51398 l -7.91998,7.72199 q -3.564,-4.257 -8.01899,-6.43499 -4.35599,-2.178 -10.29598,-2.178 -5.246986,0 -9.998977,1.881 -4.65299,1.782 -8.117983,5.24699 -3.464994,3.36599 -5.543989,8.31598 -1.979996,4.85099 -1.979996,10.88998 0,6.03899 1.979996,10.98898 2.078995,4.85099 5.543989,8.31598 3.464993,3.36599 8.117983,5.24699 4.751991,1.782 9.998977,1.782 6.33599,0 11.28598,-2.574 4.94999,-2.67299 8.81098,-7.32598 z"
         style="font-style:normal;font-variant:normal;font-weight:normal;font-stretch:normal;font-family:'Product Sans Medium';-inkscape-font-specification:'Product Sans Medium, ';fill:#ffffff;fill-opacity:0.604982;stroke-width:2.475"
         id="path1196" />
      <path
         d="m 167.36683,260.04698 h -0.594 q -2.17799,2.871 -5.64299,5.24699 -3.46499,2.277 -8.81098,2.277 -3.86099,0 -7.22698,-1.287 -3.366,-1.188 -5.84099,-3.36599 -2.475,-2.277 -3.95999,-5.24699 -1.386,-3.069 -1.386,-6.73199 0,-3.86099 1.485,-6.92999 1.58399,-3.06899 4.25699,-5.14799 2.77199,-2.07899 6.53398,-3.16799 3.762,-1.188 8.11799,-1.188 4.85099,0 8.11798,0.99 3.26699,0.891 4.94999,1.683 v -1.881 q 0,-2.178 -0.99,-4.05899 -0.89099,-1.881 -2.57399,-3.168 -1.584,-1.38599 -3.66299,-2.07899 -2.079,-0.792 -4.356,-0.792 -3.66299,0 -6.63298,1.485 -2.871,1.38599 -5.14799,4.55399 l -8.71198,-5.74199 q 3.46499,-4.75199 8.61298,-7.12799 5.14799,-2.47499 11.68198,-2.47499 10.79097,0 16.63196,5.34599 5.93999,5.34599 5.93999,15.24597 v 29.50194 h -10.79098 z m 0,-14.25597 q -2.17799,-1.287 -4.85099,-2.079 -2.67299,-0.79199 -6.13799,-0.79199 -5.14799,0 -8.21698,2.37599 -3.06899,2.376 -3.06899,5.74199 0,1.782 0.79199,3.16799 0.792,1.287 1.98,2.277 1.287,0.99 2.87099,1.485 1.683,0.49499 3.366,0.49499 2.67299,0 5.04899,-0.98999 2.47499,-1.089 4.25699,-2.772 1.782,-1.78199 2.87099,-4.05899 1.089,-2.277 1.089,-4.85099 z"
         style="font-style:normal;font-variant:normal;font-weight:normal;font-stretch:normal;font-family:'Product Sans Medium';-inkscape-font-specification:'Product Sans Medium, ';fill:#ffffff;fill-opacity:0.604982;stroke-width:2.475"
         id="path1198" />
      <path
         d="m 192.87631,227.17905 h -8.51399 v -9.70198 h 8.51399 V 202.6271 h 10.98897 v 14.84997 h 11.97898 v 9.70198 H 203.86528 V 248.761 q 0,1.782 0.396,3.267 0.396,1.48499 1.188,2.47499 1.683,1.881 4.25699,1.881 1.584,0 2.475,-0.198 0.891,-0.297 1.88099,-0.792 l 3.366,9.70198 q -2.079,0.792 -4.35599,1.188 -2.277,0.495 -5.14799,0.495 -3.465,0 -6.13799,-1.089 -2.673,-1.089 -4.65299,-2.96999 -4.25699,-4.257 -4.25699,-11.58298 z"
         style="font-style:normal;font-variant:normal;font-weight:normal;font-stretch:normal;font-family:'Product Sans Medium';-inkscape-font-specification:'Product Sans Medium, ';fill:#ffffff;fill-opacity:0.604982;stroke-width:2.475"
         id="path1200" />
      <path
         d="M 219.49799,265.98697 Z"
         style="font-style:normal;font-variant:normal;font-weight:normal;font-stretch:normal;font-family:'Product Sans Medium';-inkscape-font-specification:'Product Sans Medium, ';fill:#ffffff;fill-opacity:0.604982;stroke-width:2.475"
         id="path1202" />
      <path
         d="m 248.47552,195.10311 h 11.18698 l 23.16595,40.29292 h 0.594 l 23.16595,-40.29292 h 11.08798 v 70.88386 H 306.5884 v -38.51092 l 0.594,-11.87998 h -0.594 L 286.39244,250.939 h -6.63298 L 259.6625,215.59607 h -0.594 l 0.594,11.87998 v 38.51092 h -11.18698 z"
         style="font-style:normal;font-variant:normal;font-weight:normal;font-stretch:normal;font-family:'Product Sans Medium';-inkscape-font-specification:'Product Sans Medium, ';fill:#ffffff;fill-opacity:0.604982;stroke-width:2.475"
         id="path1204" />
      <path
         d="m 359.56568,260.04698 h -0.59399 q -2.178,2.871 -5.64299,5.24699 -3.465,2.277 -8.81099,2.277 -3.86099,0 -7.22698,-1.287 -3.36599,-1.188 -5.84099,-3.36599 -2.47499,-2.277 -3.95999,-5.24699 -1.386,-3.069 -1.386,-6.73199 0,-3.86099 1.485,-6.92999 1.58399,-3.06899 4.25699,-5.14799 2.77199,-2.07899 6.53399,-3.16799 3.76199,-1.188 8.11798,-1.188 4.85099,0 8.11798,0.99 3.267,0.891 4.94999,1.683 v -1.881 q 0,-2.178 -0.98999,-4.05899 -0.891,-1.881 -2.574,-3.168 -1.584,-1.38599 -3.66299,-2.07899 -2.079,-0.792 -4.35599,-0.792 -3.663,0 -6.63299,1.485 -2.87099,1.38599 -5.14799,4.55399 l -8.71198,-5.74199 q 3.46499,-4.75199 8.61298,-7.12799 5.14799,-2.47499 11.68198,-2.47499 10.79098,0 16.63196,5.34599 5.93999,5.34599 5.93999,15.24597 v 29.50194 h -10.79098 z m 0,-14.25597 q -2.17799,-1.287 -4.85099,-2.079 -2.67299,-0.79199 -6.13798,-0.79199 -5.14799,0 -8.21699,2.37599 -3.06899,2.376 -3.06899,5.74199 0,1.782 0.792,3.16799 0.792,1.287 1.97999,2.277 1.287,0.99 2.871,1.485 1.68299,0.49499 3.36599,0.49499 2.673,0 5.04899,-0.98999 2.475,-1.089 4.25699,-2.772 1.782,-1.78199 2.871,-4.05899 1.08899,-2.277 1.08899,-4.85099 z"
         style="font-style:normal;font-variant:normal;font-weight:normal;font-stretch:normal;font-family:'Product Sans Medium';-inkscape-font-specification:'Product Sans Medium, ';fill:#ffffff;fill-opacity:0.604982;stroke-width:2.475"
         id="path1206" />
      <path
         d="m 380.69594,195.10311 h 10.98897 v 41.08492 h 0.396 l 18.61197,-18.71096 h 13.76097 v 0.594 l -18.41396,18.21596 19.60196,29.10594 v 0.594 h -13.06798 l -14.35497,-22.07696 -6.53399,6.43499 v 15.64197 h -10.98897 z"
         style="font-style:normal;font-variant:normal;font-weight:normal;font-stretch:normal;font-family:'Product Sans Medium';-inkscape-font-specification:'Product Sans Medium, ';fill:#ffffff;fill-opacity:0.604982;stroke-width:2.475"
         id="path1208" />
      <path
         d="m 474.17499,254.40399 q -3.069,5.64299 -8.71198,9.40498 -5.64299,3.762 -13.85998,3.762 -5.44499,0 -10.09798,-1.881 -4.55399,-1.98 -7.91998,-5.44499 -3.36599,-3.46499 -5.24699,-8.11798 -1.881,-4.75199 -1.881,-10.39498 0,-5.24699 1.782,-9.89998 1.782,-4.75199 4.94999,-8.21699 3.26699,-3.56399 7.82098,-5.64298 4.554,-2.079 10.09798,-2.079 5.64299,0 9.99898,1.881 4.455,1.88099 7.52399,5.24699 3.06899,3.36599 4.65299,8.11798 1.683,4.75199 1.683,10.39498 0,0.495 0,0.891 -0.099,0.495 -0.099,0.89099 -0.099,0.396 -0.099,0.792 h -37.32293 q 0.297,3.465 1.683,6.03899 1.386,2.574 3.36599,4.25699 2.079,1.683 4.55399,2.475 2.475,0.792 4.85099,0.792 4.75199,0 7.82099,-2.277 3.06899,-2.277 5.04899,-5.64299 z m -10.19698,-18.71096 q -0.198,-1.485 -0.99,-3.26699 -0.693,-1.881 -2.277,-3.366 -1.48499,-1.58399 -3.95999,-2.67299 -2.37599,-1.089 -5.84099,-1.089 -4.75199,0 -8.21698,2.87099 -3.36599,2.772 -4.55399,7.52399 z"
         style="font-style:normal;font-variant:normal;font-weight:normal;font-stretch:normal;font-family:'Product Sans Medium';-inkscape-font-specification:'Product Sans Medium, ';fill:#ffffff;fill-opacity:0.604982;stroke-width:2.475"
         id="path1210" />
      <path
         d="m 483.36958,217.47707 h 10.39498 v 7.32598 h 0.594 q 0.891,-1.88099 2.37599,-3.46499 1.584,-1.683 3.465,-2.772 1.97999,-1.18799 4.05899,-1.78199 2.17799,-0.693 4.15799,-0.693 2.376,0 4.05899,0.396 1.683,0.396 3.069,1.089 l -3.168,10.19698 q -1.089,-0.495 -2.47499,-0.693 -1.287,-0.297 -3.168,-0.297 -2.67299,0 -4.94999,1.089 -2.17799,1.08899 -3.86099,2.96999 -1.68299,1.881 -2.67299,4.45499 -0.891,2.574 -0.891,5.44499 v 25.24495 h -10.98898 z"
         style="font-style:normal;font-variant:normal;font-weight:normal;font-stretch:normal;font-family:'Product Sans Medium';-inkscape-font-specification:'Product Sans Medium, ';fill:#ffffff;fill-opacity:0.604982;stroke-width:2.475"
         id="path1212" />
    </g>
    <path
       transform="matrix(2.1214286,0,0,2.1214286,-536.73214,0)"
       d="M 149.40234 7.4238281 C 144.59449 7.4238248 134.90087 13.388523 124.11719 22.978516 L 120.24805 26.417969 L 116.66797 24.939453 C 108.7546 21.667404 101.49952 19.866602 91.822266 18.775391 C 88.164132 18.362918 77.080285 18.361919 73.402344 18.773438 C 63.84271 19.842995 55.625376 21.911914 47.994141 25.169922 L 44.992188 26.449219 L 41.623047 23.419922 C 30.759452 13.653473 20.714028 7.4257812 15.824219 7.4257812 C 14.720001 7.425778 14.429534 7.551407 13.660156 8.3671875 C 12.786108 9.2939437 12.015187 11.218765 11.375 14.0625 C 10.892749 16.204657 10.71272 26.139706 11.078125 30.513672 C 11.83092 39.524859 13.888312 51.252986 16.363281 60.654297 C 16.853517 62.51649 17.046125 64.14847 17.177734 67.5625 C 17.383879 72.910003 17.936365 77.863743 18.816406 82.466797 C 16.021471 81.526499 12.802223 81.451795 9.4824219 82.3125 C 7.5291626 82.818904 7.0151205 83.132659 7.1699219 83.724609 C 7.294635 84.201481 7.7367027 84.242664 8.8828125 83.888672 C 11.408983 83.108424 14.513837 82.891928 16.824219 83.333984 C 17.57656 83.477931 18.358302 83.728167 19.128906 84.052734 C 19.520988 85.901029 19.975949 87.681814 20.482422 89.410156 C 19.621113 89.181181 19.032726 89.138832 17.292969 89.134766 C 15.126655 89.129802 14.856535 89.161072 13.701172 89.5625 C 12.216474 90.078355 10.689519 90.95224 9.4023438 92.023438 C 8.4535067 92.813085 8.2428336 93.285755 8.6542969 93.697266 C 8.9442807 93.987264 9.4799237 93.91883 9.8085938 93.550781 C 10.191883 93.121537 11.473992 92.175807 12.373047 91.658203 C 14.673815 90.333565 17.845177 90.109695 20.960938 90.992188 C 23.657532 99.413339 27.770811 106.37985 33.369141 112.01562 C 42.602225 121.31047 55.93497 126.74179 73.130859 128.21484 L 73.130859 128.2168 C 76.886088 128.53843 87.919179 128.54681 91.685547 128.23242 C 115.51227 126.24363 131.65072 116.99688 140.40625 100.31445 C 141.98378 97.30869 143.29709 94.142027 144.375 90.755859 C 146.07236 90.400091 148.16036 90.352412 149.64258 90.671875 C 151.28606 91.02608 153.40669 92.087706 154.9375 93.322266 C 156.20997 94.34848 156.36504 94.427007 156.80078 94.259766 C 157.31492 94.062455 157.08985 93.325288 156.30469 92.630859 C 154.74625 91.25251 152.8208 90.136937 150.86133 89.480469 C 149.9135 89.162871 149.48046 89.119141 147.2832 89.119141 C 146.27477 89.119141 145.52189 89.163064 144.83984 89.238281 C 145.38504 87.367463 145.86214 85.427943 146.26953 83.408203 C 146.79058 83.184047 147.31497 82.992309 147.83008 82.847656 C 149.29731 82.435618 153.79529 82.436388 155.5625 82.849609 C 157.61315 83.329126 157.62323 83.328894 157.82227 82.957031 C 158.12854 82.384733 157.8825 82.034955 156.99805 81.785156 C 154.37897 81.045537 150.64727 80.845293 148.33008 81.320312 C 147.69897 81.449688 147.1195 81.629037 146.56836 81.847656 C 147.35733 77.489057 147.84793 72.765319 148.0625 67.5625 C 148.21688 63.819494 148.3773 62.775006 149.53906 57.945312 C 151.45875 49.964766 152.69849 43.215041 153.74219 35.054688 C 154.33761 30.399279 154.56258 19.589822 154.13477 16.179688 C 153.67639 12.526031 152.71088 9.5858171 151.57812 8.3847656 C 150.79219 7.5514291 150.51079 7.4238281 149.40234 7.4238281 z M 117.83984 63.587891 A 9.1917014 9.1917014 0 0 1 127.03125 72.779297 A 9.1917014 9.1917014 0 0 1 117.83984 81.970703 A 9.1917014 9.1917014 0 0 1 108.64648 72.779297 A 9.1917014 9.1917014 0 0 1 117.83984 63.587891 z M 47.789062 64.013672 A 9.1917014 9.1917014 0 0 1 47.970703 64.013672 A 9.1917014 9.1917014 0 0 1 57.162109 73.203125 A 9.1917014 9.1917014 0 0 1 47.970703 82.396484 A 9.1917014 9.1917014 0 0 1 38.779297 73.203125 A 9.1917014 9.1917014 0 0 1 47.789062 64.013672 z M 79.919922 83.308594 L 82.777344 83.308594 C 85.5672 83.308594 85.644705 83.317283 85.90625 83.630859 C 86.053655 83.80757 86.175137 84.058783 86.177734 84.191406 C 86.180091 84.324015 85.605164 85.173984 84.898438 86.078125 C 84.191697 86.98227 83.612456 87.804366 83.613281 87.90625 C 83.615638 88.219096 84.865338 89.777484 85.505859 90.267578 C 86.252512 90.838915 87.676865 91.304688 88.681641 91.304688 C 89.462317 91.304688 89.609375 91.419426 89.609375 92.025391 C 89.609375 92.606721 88.467209 92.758694 86.994141 92.375 C 85.711637 92.040985 85.049785 91.634308 83.945312 90.501953 L 82.919922 89.453125 L 82.623047 89.931641 C 81.597898 91.590363 79.225005 92.730469 76.798828 92.730469 C 75.819856 92.730469 75.744612 92.708619 75.589844 92.369141 C 75.327059 91.792407 75.671117 91.575629 77.091797 91.431641 C 79.179678 91.220014 80.512218 90.546405 81.380859 89.255859 C 82.207293 88.027993 82.213964 88.063107 80.855469 86.322266 C 79.246496 84.260396 79.245157 84.257643 79.619141 83.732422 L 79.919922 83.308594 z "
       style="fill:url(#radialGradient999);fill-opacity:1;stroke-width:0.156236;filter:url(#filter1026)"
       id="path1029" />
  </g>
</svg>
